<svg xmlns="http://www.w3.org/2000/svg" version="1.1" xmlns:xlink="http://www.w3.org/1999/xlink" xmlns:svgjs="http://svgjs.dev/svgjs" width="1000" height="277" viewBox="0 0 1000 277"><g transform="matrix(1,0,0,1,-0.6060606060606233,-0.2818243587358893)"><svg viewBox="0 0 396 110" data-background-color="#ffffff" preserveAspectRatio="xMidYMid meet" height="277" width="1000" xmlns="http://www.w3.org/2000/svg" xmlns:xlink="http://www.w3.org/1999/xlink"><g id="tight-bounds" transform="matrix(1,0,0,1,0.2400000000000091,0.11191581032832687)"><svg viewBox="0 0 395.52 109.77616837934336" height="109.77616837934336" width="395.52"><g><svg viewBox="0 0 395.52 109.77616837934336" height="109.77616837934336" width="395.52"><g><svg viewBox="0 0 395.52 109.77616837934336" height="109.77616837934336" width="395.52"><g id="textblocktransform"><svg viewBox="0 0 395.52 109.77616837934336" height="109.77616837934336" width="395.52" id="textblock"><g><svg viewBox="0 0 395.52 85.55754018766768" height="85.55754018766768" width="395.52"><rect width="395.52" height="85.55754018766768" x="0" y="0" opacity="1" fill="#f14c45" data-fill-palette-color="tertiary"></rect><g transform="matrix(1,0,0,1,23.461705032,23.461705032)"><svg width="348.596589936" viewBox="3.6500000953674316 -34.349998474121094 313.5299987792969 34.75" height="38.634130123667674" data-palette-color="#ffffff"><path d="M13.2-29.4L8.8-29.4 8.8-17.1 13.45-17.1Q16.65-17.1 18.3-18.78 19.95-20.45 19.95-23.25L19.95-23.25Q19.95-29.4 13.2-29.4L13.2-29.4ZM27.3 0L21.15 0 13.25-12.8 8.8-12.8 8.8 0 3.65 0 3.65-33.7 13.05-33.7Q18.85-33.7 22-30.88 25.15-28.05 25.15-23.2L25.15-23.2Q25.1-19.65 23.35-17.18 21.6-14.7 18.5-13.6L18.5-13.6 27.3 0ZM37.3-29.3L37.3-4.35 42.6-4.35Q48.35-4.35 51.35-7.95 54.35-11.55 54.35-17.2L54.35-17.2Q54.35-22.4 51.1-25.85 47.85-29.3 42.45-29.3L42.45-29.3 37.3-29.3ZM32.05 0L32.05-33.7 42.55-33.7Q50.05-33.7 54.85-29.05 59.65-24.4 59.65-17.2L59.65-17.2Q59.65-9.7 55.12-4.85 50.6 0 42.65 0L42.65 0 32.05 0ZM95.89-32.35L95.89-32.35 95.89-27.25Q92.54-29.35 88.29-29.35L88.29-29.35Q85.54-29.35 83.97-28.13 82.39-26.9 82.39-24.9 82.39-22.9 83.94-21.7 85.49-20.5 88.69-19.1L88.69-19.1Q90.79-18.2 91.97-17.55 93.14-16.9 94.67-15.73 96.19-14.55 96.92-12.93 97.64-11.3 97.64-9.2L97.64-9.2Q97.64-4.75 94.49-2.2 91.34 0.35 86.34 0.35L86.34 0.35Q80.79 0.35 77.14-1.8L77.14-1.8 77.14-7.15Q81.09-4.2 86.29-4.2L86.29-4.2Q89.04-4.2 90.64-5.48 92.24-6.75 92.24-9L92.24-9Q92.24-10.35 91.29-11.48 90.34-12.6 89.24-13.18 88.14-13.75 85.94-14.75L85.94-14.75Q84.64-15.35 84.12-15.6 83.59-15.85 82.39-16.5 81.19-17.15 80.62-17.6 80.04-18.05 79.19-18.85 78.34-19.65 77.97-20.45 77.59-21.25 77.27-22.33 76.94-23.4 76.94-24.65L76.94-24.65Q76.94-28.95 80.07-31.45 83.19-33.95 88.14-33.95L88.14-33.95Q92.69-33.95 95.89-32.35ZM102.39-17L102.39-17Q102.39-24.85 106.59-29.6 110.79-34.35 117.84-34.35L117.84-34.35Q125.04-34.35 129.19-29.63 133.34-24.9 133.34-17 133.34-9.1 129.17-4.35 124.99 0.4 117.89 0.4L117.89 0.4Q110.84 0.4 106.62-4.35 102.39-9.1 102.39-17ZM110.47-26.18Q107.79-22.8 107.79-17 107.79-11.2 110.54-7.8 113.29-4.4 117.89-4.4L117.89-4.4Q122.64-4.4 125.29-7.75 127.94-11.1 127.94-17L127.94-17Q127.94-22.85 125.27-26.2 122.59-29.55 117.84-29.55L117.84-29.55Q113.14-29.55 110.47-26.18ZM158.39-33.7L158.39-29.4 144.44-29.4 144.44-18.35 156.69-18.35 156.69-14.05 144.44-14.05 144.44 0 139.29 0 139.29-33.7 158.39-33.7ZM161.44-33.7L184.24-33.7 184.24-29.4 175.39-29.4 175.39 0 170.24 0 170.24-29.4 161.44-29.4 161.44-33.7ZM203.48-21.25L206.93-33.2 211.48-33.2 215.03-21.2 219.58-5.35Q221.43-14.45 223.03-21.2L223.03-21.2 225.98-33.7 231.18-33.7 222.93 0 216.78 0 213.58-10.65 209.23-25.7Q208.08-20.95 205.03-10.65L205.03-10.65 201.93 0 195.73 0 186.88-33.7 192.23-33.7 195.38-21.25 199.08-5.45Q201.33-13.85 203.48-21.25L203.48-21.25ZM244.33-14.25L243.78-12.55 254.58-12.55 254.03-14.25Q252.13-20.15 250.93-24.03 249.73-27.9 249.48-28.85L249.48-28.85 249.23-29.8Q248.68-27.45 244.33-14.25L244.33-14.25ZM264.13 0L258.63 0 255.98-8.25 242.38-8.25 239.68 0 234.23 0 245.88-33.7 252.63-33.7 264.13 0ZM278.88-29.4L274.48-29.4 274.48-17.1 279.13-17.1Q282.33-17.1 283.98-18.78 285.63-20.45 285.63-23.25L285.63-23.25Q285.63-29.4 278.88-29.4L278.88-29.4ZM292.98 0L286.83 0 278.93-12.8 274.48-12.8 274.48 0 269.33 0 269.33-33.7 278.73-33.7Q284.53-33.7 287.68-30.88 290.83-28.05 290.83-23.2L290.83-23.2Q290.78-19.65 289.03-17.18 287.28-14.7 284.18-13.6L284.18-13.6 292.98 0ZM302.88-14.7L302.88-4.3 317.18-4.3 317.18 0 297.73 0 297.73-33.7 316.93-33.7 316.93-29.4 302.88-29.4 302.88-19 315.33-19 315.33-14.7 302.88-14.7Z" opacity="1" transform="matrix(1,0,0,1,0,0)" fill="#ffffff" class="wordmark-text-0" data-fill-palette-color="quaternary" id="text-0"></path></svg></g></svg></g><g transform="matrix(1,0,0,1,0,97.28839270366768)"><svg viewBox="0 0 187.87199999999999 12.487775675675676" height="12.487775675675676" width="187.87199999999999"><g transform="matrix(1,0,0,1,0,0)"><svg width="187.87199999999999" viewBox="2.5 -38.70000076293945 591.9299926757812 39.35000228881836" height="12.487775675675676" data-palette-color="#6f6f6f"><path d="M15.65-35.05Q18.35-35.05 20.35-34.23 22.35-33.4 24.3-31.65L24.3-31.65 21.9-28.85Q20.45-30.1 19.03-30.7 17.6-31.3 15.9-31.3L15.9-31.3Q12-31.3 9.7-27.98 7.4-24.65 7.4-17.25L7.4-17.25Q7.4-10.05 9.7-6.63 12-3.2 15.9-3.2L15.9-3.2Q17.85-3.2 19.25-3.9 20.65-4.6 22.3-5.95L22.3-5.95 24.65-3.2Q20.9 0.65 15.65 0.65L15.65 0.65Q11.8 0.65 8.83-1.35 5.85-3.35 4.17-7.38 2.5-11.4 2.5-17.25L2.5-17.25Q2.5-23.05 4.23-27.05 5.95-31.05 8.93-33.05 11.9-35.05 15.65-35.05L15.65-35.05ZM38.6-26.95Q43.65-26.95 46.45-23.4 49.25-19.85 49.25-13.2L49.25-13.2Q49.25-6.8 46.4-3.08 43.55 0.65 38.55 0.65L38.55 0.65Q33.5 0.65 30.67-3 27.85-6.65 27.85-13.15L27.85-13.15Q27.85-19.7 30.7-23.33 33.55-26.95 38.6-26.95L38.6-26.95ZM38.6-23.35Q35.65-23.35 34.1-20.88 32.55-18.4 32.55-13.15L32.55-13.15Q32.55-2.9 38.55-2.9L38.55-2.9Q44.55-2.9 44.55-13.2L44.55-13.2Q44.55-18.45 43.05-20.9 41.55-23.35 38.6-23.35L38.6-23.35ZM69.95-37.45L74.45-36.95 74.45 0 70.45 0 70.15-3.45Q67.6 0.65 63.3 0.65L63.3 0.65Q59 0.65 56.62-3 54.25-6.65 54.25-13.05L54.25-13.05Q54.25-17.2 55.42-20.35 56.6-23.5 58.75-25.23 60.9-26.95 63.7-26.95L63.7-26.95Q67.45-26.95 69.95-23.8L69.95-23.8 69.95-37.45ZM64.35-2.9Q66.15-2.9 67.47-3.9 68.8-4.9 69.95-6.85L69.95-6.85 69.95-20.05Q67.7-23.4 64.7-23.4L64.7-23.4Q62.05-23.4 60.5-20.85 58.95-18.3 59-13.15L59-13.15Q59-7.9 60.4-5.4 61.8-2.9 64.35-2.9L64.35-2.9ZM100.99-13.95Q100.99-12.9 100.89-11.6L100.89-11.6 85.59-11.6Q85.79-7 87.44-4.98 89.09-2.95 91.94-2.95L91.94-2.95Q93.74-2.95 95.17-3.5 96.59-4.05 98.14-5.3L98.14-5.3 100.14-2.65Q96.44 0.65 91.74 0.65L91.74 0.65Q86.59 0.65 83.77-2.93 80.94-6.5 80.94-12.95L80.94-12.95Q80.94-19.4 83.64-23.18 86.34-26.95 91.14-26.95L91.14-26.95Q95.89-26.95 98.44-23.58 100.99-20.2 100.99-13.95L100.99-13.95ZM96.64-14.75L96.64-15.3Q96.64-23.55 91.19-23.55L91.19-23.55Q88.69-23.55 87.24-21.48 85.79-19.4 85.59-14.75L85.59-14.75 96.64-14.75ZM130.59-35.05Q133.29-35.05 135.29-34.23 137.29-33.4 139.24-31.65L139.24-31.65 136.84-28.85Q135.39-30.1 133.96-30.7 132.54-31.3 130.84-31.3L130.84-31.3Q126.94-31.3 124.64-27.98 122.34-24.65 122.34-17.25L122.34-17.25Q122.34-10.05 124.64-6.63 126.94-3.2 130.84-3.2L130.84-3.2Q132.79-3.2 134.19-3.9 135.59-4.6 137.24-5.95L137.24-5.95 139.59-3.2Q135.84 0.65 130.59 0.65L130.59 0.65Q126.74 0.65 123.76-1.35 120.79-3.35 119.11-7.38 117.44-11.4 117.44-17.25L117.44-17.25Q117.44-23.05 119.16-27.05 120.89-31.05 123.86-33.05 126.84-35.05 130.59-35.05L130.59-35.05ZM155.19-26.9Q156.49-26.9 157.44-26.6L157.44-26.6 156.69-22.25Q155.74-22.55 154.64-22.55L154.64-22.55Q152.44-22.55 151.06-20.8 149.69-19.05 148.89-15.45L148.89-15.45 148.89 0 144.39 0 144.39-26.3 148.28-26.3 148.64-21.1Q150.59-26.9 155.19-26.9L155.19-26.9ZM178.23-6Q178.23-4.4 178.68-3.63 179.13-2.85 180.08-2.45L180.08-2.45 179.13 0.6Q177.18 0.3 176.08-0.6 174.98-1.5 174.53-3.35L174.53-3.35Q171.98 0.65 167.38 0.65L167.38 0.65Q163.88 0.65 161.83-1.53 159.78-3.7 159.78-7.35L159.78-7.35Q159.78-11.55 162.53-13.75 165.28-15.95 170.38-15.95L170.38-15.95 173.78-15.95 173.78-18.2Q173.78-20.95 172.66-22.18 171.53-23.4 168.98-23.4L168.98-23.4Q166.23-23.4 162.58-22L162.58-22 161.48-25.15Q165.88-26.95 169.68-26.95L169.68-26.95Q178.23-26.95 178.23-18.4L178.23-18.4 178.23-6ZM168.43-2.75Q171.93-2.75 173.78-6.85L173.78-6.85 173.78-13.05 170.88-13.05Q164.38-13.05 164.38-7.6L164.38-7.6Q164.38-5.25 165.43-4 166.48-2.75 168.43-2.75L168.43-2.75ZM194.93-33.9Q193.08-33.9 192.21-33 191.33-32.1 191.33-30.2L191.33-30.2 191.33-26.3 197.23-26.3 196.73-22.9 191.33-22.9 191.33 0 186.83 0 186.83-22.9 182.93-22.9 182.93-26.3 186.83-26.3 186.83-30.15Q186.83-33.45 188.85-35.45 190.88-37.45 194.48-37.45L194.48-37.45Q197.48-37.45 200.38-36L200.38-36 199.03-32.9Q196.98-33.9 194.93-33.9L194.93-33.9ZM212.43-4.05L214.08-1.15Q211.58 0.65 208.53 0.65L208.53 0.65Q205.33 0.65 203.6-1.2 201.88-3.05 201.88-6.4L201.88-6.4 201.88-22.9 198.13-22.9 198.13-26.3 201.88-26.3 201.88-32.35 206.38-32.9 206.38-26.3 212.18-26.3 211.68-22.9 206.38-22.9 206.38-6.45Q206.38-3.05 209.23-3.05L209.23-3.05Q210.08-3.05 210.8-3.3 211.53-3.55 212.43-4.05L212.43-4.05ZM236.43-13.95Q236.43-12.9 236.33-11.6L236.33-11.6 221.03-11.6Q221.23-7 222.88-4.98 224.53-2.95 227.38-2.95L227.38-2.95Q229.18-2.95 230.6-3.5 232.03-4.05 233.58-5.3L233.58-5.3 235.58-2.65Q231.88 0.65 227.18 0.65L227.18 0.65Q222.03 0.65 219.2-2.93 216.38-6.5 216.38-12.95L216.38-12.95Q216.38-19.4 219.08-23.18 221.78-26.95 226.58-26.95L226.58-26.95Q231.33-26.95 233.88-23.58 236.43-20.2 236.43-13.95L236.43-13.95ZM232.08-14.75L232.08-15.3Q232.08-23.55 226.63-23.55L226.63-23.55Q224.13-23.55 222.68-21.48 221.23-19.4 221.03-14.75L221.03-14.75 232.08-14.75ZM256.87-37.45L261.37-36.95 261.37 0 257.37 0 257.07-3.45Q254.52 0.65 250.22 0.65L250.22 0.65Q245.92 0.65 243.55-3 241.17-6.65 241.17-13.05L241.17-13.05Q241.17-17.2 242.35-20.35 243.52-23.5 245.67-25.23 247.82-26.95 250.62-26.95L250.62-26.95Q254.37-26.95 256.87-23.8L256.87-23.8 256.87-37.45ZM251.27-2.9Q253.07-2.9 254.4-3.9 255.72-4.9 256.87-6.85L256.87-6.85 256.87-20.05Q254.62-23.4 251.62-23.4L251.62-23.4Q248.97-23.4 247.42-20.85 245.87-18.3 245.92-13.15L245.92-13.15Q245.92-7.9 247.32-5.4 248.72-2.9 251.27-2.9L251.27-2.9ZM309.12-34.4L313.47-34.4 307.37 0 301.37 0 295.87-29.3 290.27 0 284.37 0 278.32-34.4 282.82-34.4 287.62-3.95 293.37-34.4 298.42-34.4 304.17-3.95 309.12-34.4ZM318.67-26.3L323.17-26.3 323.17 0 318.67 0 318.67-26.3ZM320.92-38.7Q322.22-38.7 323.04-37.85 323.87-37 323.87-35.75L323.87-35.75Q323.87-34.5 323.06-33.68 322.26-32.85 320.92-32.85L320.92-32.85Q319.62-32.85 318.79-33.68 317.97-34.5 317.97-35.75L317.97-35.75Q317.97-37 318.79-37.85 319.62-38.7 320.92-38.7L320.92-38.7ZM342.06-4.05L343.71-1.15Q341.21 0.65 338.16 0.65L338.16 0.65Q334.96 0.65 333.24-1.2 331.51-3.05 331.51-6.4L331.51-6.4 331.51-22.9 327.76-22.9 327.76-26.3 331.51-26.3 331.51-32.35 336.01-32.9 336.01-26.3 341.81-26.3 341.31-22.9 336.01-22.9 336.01-6.45Q336.01-3.05 338.86-3.05L338.86-3.05Q339.71-3.05 340.44-3.3 341.16-3.55 342.06-4.05L342.06-4.05ZM359.36-26.95Q362.51-26.95 364.29-24.85 366.06-22.75 366.06-19.15L366.06-19.15 366.06 0 361.56 0 361.56-18.6Q361.56-21.15 360.69-22.28 359.81-23.4 358.11-23.4L358.11-23.4Q354.81-23.4 352.11-18.7L352.11-18.7 352.11 0 347.61 0 347.61-36.9 352.11-37.4 352.11-22.55Q353.56-24.7 355.31-25.83 357.06-26.95 359.36-26.95L359.36-26.95ZM385.91-34.4L403.01-34.4 402.46-30.8 390.56-30.8 390.56-19.45 400.91-19.45 400.91-15.85 390.56-15.85 390.56-3.65 403.16-3.65 403.16 0 385.91 0 385.91-34.4ZM425.75-26.3L418.7-14.1 426.8 0 421.85 0 415.95-11.4 410.1 0 405.3 0 413.4-13.9 406.2-26.3 411.1-26.3 416.05-16.5 421-26.3 425.75-26.3ZM440.2-26.95Q442.3-26.95 444.05-26.25 445.8-25.55 447.4-24.1L447.4-24.1 445.4-21.4Q444.2-22.35 443-22.83 441.8-23.3 440.4-23.3L440.4-23.3Q437.45-23.3 435.83-20.8 434.2-18.3 434.2-13L434.2-13Q434.2-3.1 440.4-3.1L440.4-3.1Q441.8-3.1 442.95-3.58 444.1-4.05 445.4-5L445.4-5 447.5-2.25Q444.3 0.65 440.25 0.65L440.25 0.65Q435.2 0.65 432.33-2.85 429.45-6.35 429.45-12.95L429.45-12.95Q429.45-17.25 430.78-20.4 432.1-23.55 434.53-25.25 436.95-26.95 440.2-26.95L440.2-26.95ZM470.9-13.95Q470.9-12.9 470.8-11.6L470.8-11.6 455.5-11.6Q455.7-7 457.35-4.98 459-2.95 461.85-2.95L461.85-2.95Q463.65-2.95 465.07-3.5 466.5-4.05 468.05-5.3L468.05-5.3 470.05-2.65Q466.35 0.65 461.65 0.65L461.65 0.65Q456.5 0.65 453.67-2.93 450.85-6.5 450.85-12.95L450.85-12.95Q450.85-19.4 453.55-23.18 456.25-26.95 461.05-26.95L461.05-26.95Q465.8-26.95 468.35-23.58 470.9-20.2 470.9-13.95L470.9-13.95ZM466.55-14.75L466.55-15.3Q466.55-23.55 461.1-23.55L461.1-23.55Q458.6-23.55 457.15-21.48 455.7-19.4 455.5-14.75L455.5-14.75 466.55-14.75ZM482.1 0.65Q479.7 0.65 478.3-0.8 476.9-2.25 476.9-4.85L476.9-4.85 476.9-36.95 481.4-37.45 481.4-5Q481.4-3.05 483-3.05L483-3.05Q483.65-3.05 484.45-3.35L484.45-3.35 485.45-0.2Q483.85 0.65 482.1 0.65L482.1 0.65ZM495.29 0.65Q492.89 0.65 491.49-0.8 490.09-2.25 490.09-4.85L490.09-4.85 490.09-36.95 494.59-37.45 494.59-5Q494.59-3.05 496.19-3.05L496.19-3.05Q496.84-3.05 497.64-3.35L497.64-3.35 498.64-0.2Q497.04 0.65 495.29 0.65L495.29 0.65ZM521.99-13.95Q521.99-12.9 521.89-11.6L521.89-11.6 506.59-11.6Q506.79-7 508.44-4.98 510.09-2.95 512.94-2.95L512.94-2.95Q514.74-2.95 516.16-3.5 517.59-4.05 519.14-5.3L519.14-5.3 521.14-2.65Q517.44 0.65 512.74 0.65L512.74 0.65Q507.59 0.65 504.76-2.93 501.94-6.5 501.94-12.95L501.94-12.95Q501.94-19.4 504.64-23.18 507.34-26.95 512.14-26.95L512.14-26.95Q516.89-26.95 519.44-23.58 521.99-20.2 521.99-13.95L521.99-13.95ZM517.64-14.75L517.64-15.3Q517.64-23.55 512.19-23.55L512.19-23.55Q509.69-23.55 508.24-21.48 506.79-19.4 506.59-14.75L506.59-14.75 517.64-14.75ZM539.99-26.95Q543.14-26.95 544.91-24.88 546.69-22.8 546.69-19.15L546.69-19.15 546.69 0 542.19 0 542.19-18.6Q542.19-21.15 541.34-22.28 540.49-23.4 538.74-23.4L538.74-23.4Q535.44-23.4 532.74-18.7L532.74-18.7 532.74 0 528.24 0 528.24-26.3 532.14-26.3 532.49-22.4Q535.54-26.95 539.99-26.95L539.99-26.95ZM563.74-26.95Q565.83-26.95 567.58-26.25 569.33-25.55 570.93-24.1L570.93-24.1 568.93-21.4Q567.74-22.35 566.53-22.83 565.33-23.3 563.93-23.3L563.93-23.3Q560.99-23.3 559.36-20.8 557.74-18.3 557.74-13L557.74-13Q557.74-3.1 563.93-3.1L563.93-3.1Q565.33-3.1 566.49-3.58 567.63-4.05 568.93-5L568.93-5 571.03-2.25Q567.83 0.65 563.78 0.65L563.78 0.65Q558.74 0.65 555.86-2.85 552.99-6.35 552.99-12.95L552.99-12.95Q552.99-17.25 554.31-20.4 555.63-23.55 558.06-25.25 560.49-26.95 563.74-26.95L563.74-26.95ZM594.43-13.95Q594.43-12.9 594.33-11.6L594.33-11.6 579.03-11.6Q579.23-7 580.88-4.98 582.53-2.95 585.38-2.95L585.38-2.95Q587.18-2.95 588.61-3.5 590.03-4.05 591.58-5.3L591.58-5.3 593.58-2.65Q589.88 0.65 585.18 0.65L585.18 0.65Q580.03 0.65 577.21-2.93 574.38-6.5 574.38-12.95L574.38-12.95Q574.38-19.4 577.08-23.18 579.78-26.95 584.58-26.95L584.58-26.95Q589.33-26.95 591.88-23.58 594.43-20.2 594.43-13.95L594.43-13.95ZM590.08-14.75L590.08-15.3Q590.08-23.55 584.63-23.55L584.63-23.55Q582.13-23.55 580.68-21.48 579.23-19.4 579.03-14.75L579.03-14.75 590.08-14.75Z" opacity="1" transform="matrix(1,0,0,1,0,0)" fill="#6f6f6f" class="slogan-text-1" data-fill-palette-color="secondary" id="text-1"></path></svg></g></svg></g></svg></g></svg></g><g></g></svg></g><defs></defs></svg><rect width="395.52" height="109.77616837934336" fill="none" stroke="none" visibility="hidden"></rect></g></svg></g></svg>